<svg id="Layer_1" enable-background="new 0 0 512 512" height="512" viewBox="0 0 512 512" width="512" xmlns="http://www.w3.org/2000/svg"><g id="XMLID_1142_"><g id="XMLID_156_"><path id="XMLID_1104_" d="m400.167 116h-86.31l12.304-52h42.688c5.522 0 10-4.477 10-10v-44c0-5.523-4.478-10-10-10h-68c-14.903 0-27.708 10.129-31.141 24.632l-21.618 91.368h-136.257c-14.244 0-25.833 11.589-25.833 25.833v24.333c0 14.245 11.589 25.834 25.833 25.834h2.522l19.519 273.559c1.858 26.042 23.766 46.441 49.873 46.441h144.506c26.107 0 48.015-20.399 49.873-46.441l19.519-273.559h2.522c14.244 0 25.833-11.589 25.833-25.833v-24.333c0-14.245-11.589-25.834-25.833-25.834zm-110.996-86.763c1.287-5.439 6.089-9.237 11.678-9.237h58v24h-40.598c-4.636 0-8.664 3.186-9.731 7.697l-15.215 64.303h-24.662zm69.006 434.898c-1.115 15.625-14.26 27.865-29.924 27.865h-144.506c-15.664 0-28.809-12.24-29.924-27.865l-2.075-29.075c.084-34.142 15.907-66.433 42.164-87.607 6.955 27.814 32.148 48.482 62.087 48.482 35.29 0 64-28.71 64-64 0-6.993-1.143-13.721-3.226-20.025 22.6-9.674 41.595-25.206 55.436-44.452zm-58.177-132.199c0 24.262-19.738 44-44 44s-44-19.738-44-44 19.738-44 44-44 44 19.738 44 44zm106-165.769c0 3.217-2.616 5.833-5.833 5.833h-99.04c-5.522 0-10 4.477-10 10s4.478 10 10 10h75.999c-.827 45.065-28.273 85.016-69.568 102.073-11.662-15.837-30.426-26.137-51.557-26.137-32.53 0-59.449 24.401-63.464 55.858-17.554 11.344-32.3 26.75-42.833 44.832-.826 1.418-1.617 2.853-2.388 4.299l-12.91-180.925h76.721c5.522 0 10-4.477 10-10s-4.478-10-10-10h-99.294c-3.217 0-5.833-2.617-5.833-5.833v-24.333c0-3.217 2.616-5.833 5.833-5.833h288.334c3.217 0 5.833 2.617 5.833 5.833z"/><path id="XMLID_1111_" d="m256.13 172c-2.64 0-5.21 1.07-7.07 2.93-1.87 1.86-2.93 4.44-2.93 7.07s1.06 5.21 2.93 7.07c1.86 1.86 4.431 2.93 7.07 2.93 2.63 0 5.21-1.07 7.07-2.93 1.859-1.86 2.93-4.44 2.93-7.07s-1.07-5.21-2.93-7.07-4.44-2.93-7.07-2.93z"/></g></g></svg>