<svg xmlns="http://www.w3.org/2000/svg" width="340" height="512" viewBox="0 0 340 512">
  <g id="XMLID_1142_" transform="translate(-86)">
    <g id="XMLID_156_">
      <path id="XMLID_1104_" d="M400.167,116h-86.31l12.3-52h42.688a10,10,0,0,0,10-10V10a10,10,0,0,0-10-10h-68a31.887,31.887,0,0,0-31.141,24.632L248.09,116H111.833A25.863,25.863,0,0,0,86,141.833v24.333A25.863,25.863,0,0,0,111.833,192h2.522l19.519,273.559A50.176,50.176,0,0,0,183.747,512H328.253a50.176,50.176,0,0,0,49.873-46.441L397.645,192h2.522A25.863,25.863,0,0,0,426,166.167V141.834A25.863,25.863,0,0,0,400.167,116Zm-111-86.763A11.957,11.957,0,0,1,300.849,20h58V44h-40.6a10,10,0,0,0-9.731,7.7L293.305,116H268.643Zm69.006,434.9A30.106,30.106,0,0,1,328.253,492H183.747a30.106,30.106,0,0,1-29.924-27.865l-2.075-29.075a113.356,113.356,0,0,1,42.164-87.607A63.994,63.994,0,1,0,316.773,311.91a132.411,132.411,0,0,0,55.436-44.452ZM300,331.936a44,44,0,1,1-44-44A44.049,44.049,0,0,1,300,331.936ZM406,166.167A5.839,5.839,0,0,1,400.167,172h-99.04a10,10,0,0,0,0,20h76a112.577,112.577,0,0,1-69.568,102.073,63.959,63.959,0,0,0-115.021,29.721A133.518,133.518,0,0,0,149.7,368.626c-.826,1.418-1.617,2.853-2.388,4.3L134.406,192h76.721a10,10,0,0,0,0-20H111.833A5.839,5.839,0,0,1,106,166.167V141.834A5.839,5.839,0,0,1,111.833,136H400.167A5.839,5.839,0,0,1,406,141.834Z" fill="#c39080"/>
      <path id="XMLID_1111_" d="M256.13,172a10,10,0,1,0,7.07,2.93A10.058,10.058,0,0,0,256.13,172Z" fill="#c39080"/>
    </g>
  </g>
</svg>
