<svg xmlns="http://www.w3.org/2000/svg" width="512" height="459.999" viewBox="0 0 512 459.999">
  <g id="hamburger-icon" transform="translate(0 -26)">
    <path id="Trazado_1" data-name="Trazado 1" d="M491.782,387.646a34.921,34.921,0,0,0-4.173-39.345,49.946,49.946,0,0,0,0-84.6,34.918,34.918,0,0,0,4.172-39.345A30.046,30.046,0,0,0,512,196,170.471,170.471,0,0,0,342,26H170A170.469,170.469,0,0,0,0,196a30.046,30.046,0,0,0,20.219,28.354A34.916,34.916,0,0,0,24.391,263.7a49.944,49.944,0,0,0,0,84.6,34.918,34.918,0,0,0-4.173,39.346A30.044,30.044,0,0,0,0,416v20a50.057,50.057,0,0,0,50,50H462a50.055,50.055,0,0,0,50-50V416A30.046,30.046,0,0,0,491.782,387.646ZM170,46H342c82.71,0,150,67.29,150,150a10.01,10.01,0,0,1-10,10H30a10.011,10.011,0,0,1-10-10C20,113.289,87.29,46,170,46ZM36,241a15.017,15.017,0,0,1,15-15H461a15,15,0,0,1,0,30c-10.89,0-17.057,3.492-22.012,6.3-3.936,2.229-6.535,3.7-12.155,3.7s-8.22-1.473-12.155-3.7c-4.954-2.806-11.121-6.3-22.012-6.3s-17.057,3.493-22.012,6.3c-3.935,2.229-6.534,3.7-12.154,3.7s-8.221-1.473-12.156-3.7c-4.954-2.806-11.121-6.3-22.011-6.3s-17.057,3.492-22.012,6.3c-3.936,2.229-6.535,3.7-12.155,3.7s-8.22-1.473-12.155-3.7C273.056,259.491,266.89,256,256,256s-17.057,3.492-22.012,6.3c-3.936,2.229-6.536,3.7-12.155,3.7s-8.22-1.473-12.155-3.7c-4.955-2.806-11.122-6.3-22.012-6.3s-17.056,3.492-22.011,6.3c-3.936,2.229-6.536,3.7-12.156,3.7s-8.219-1.473-12.155-3.7c-4.955-2.806-11.122-6.3-22.012-6.3s-17.056,3.492-22.011,6.3c-3.936,2.229-6.536,3.7-12.156,3.7s-8.219-1.473-12.155-3.7C68.055,259.491,61.888,256,51,256a15.017,15.017,0,0,1-15-15Zm15,35c5.62,0,8.219,1.473,12.155,3.7,4.955,2.806,11.122,6.3,22.011,6.3s17.057-3.493,22.012-6.3c3.936-2.229,6.535-3.7,12.155-3.7s8.22,1.473,12.155,3.7c4.955,2.806,11.122,6.3,22.011,6.3s17.057-3.492,22.012-6.3c3.936-2.229,6.535-3.7,12.155-3.7s8.22,1.473,12.156,3.7c4.955,2.806,11.121,6.3,22.011,6.3s17.056-3.492,22.011-6.3c3.936-2.229,6.536-3.7,12.156-3.7s8.219,1.473,12.155,3.7c4.955,2.806,11.122,6.3,22.012,6.3s17.057-3.492,22.012-6.3c3.936-2.229,6.535-3.7,12.155-3.7s8.22,1.473,12.155,3.7c4.954,2.806,11.121,6.3,22.012,6.3s17.057-3.493,22.011-6.3c3.936-2.229,6.535-3.7,12.155-3.7s8.221,1.473,12.156,3.7c4.954,2.806,11.121,6.3,22.011,6.3s17.057-3.492,22.012-6.3c3.936-2.229,6.535-3.7,12.155-3.7a30,30,0,0,1,0,60c-5.62,0-8.22-1.473-12.155-3.7-4.955-2.806-11.122-6.3-22.012-6.3s-17.057,3.492-22.011,6.3c-3.936,2.229-6.536,3.7-12.156,3.7s-8.22-1.473-12.155-3.7c-4.955-2.806-11.122-6.3-22.012-6.3s-17.058,3.493-22.012,6.3c-3.936,2.229-6.535,3.7-12.155,3.7s-8.22-1.473-12.155-3.7c-4.955-2.806-11.122-6.3-22.012-6.3s-17.057,3.492-22.012,6.3c-3.935,2.229-6.534,3.7-12.154,3.7s-8.22-1.473-12.156-3.7c-4.955-2.806-11.121-6.3-22.011-6.3s-17.057,3.492-22.011,6.3c-3.936,2.229-6.536,3.7-12.156,3.7s-8.219-1.473-12.155-3.7c-4.955-2.806-11.121-6.3-22.011-6.3s-17.056,3.492-22.011,6.3c-3.936,2.229-6.536,3.7-12.155,3.7s-8.219-1.473-12.155-3.7c-4.956-2.807-11.123-6.3-22.013-6.3s-17.056,3.492-22.011,6.3C59.219,334.527,56.62,336,51,336a30,30,0,0,1,0-60Zm22.011,73.7c3.936-2.229,6.535-3.7,12.155-3.7s8.22,1.473,12.156,3.7c4.955,2.806,11.121,6.3,22.011,6.3s17.057-3.492,22.012-6.3c3.935-2.229,6.535-3.7,12.155-3.7s8.22,1.473,12.156,3.7c4.955,2.806,11.121,6.3,22.011,6.3s17.057-3.492,22.012-6.3c3.936-2.229,6.536-3.7,12.155-3.7s8.22,1.473,12.155,3.7c4.954,2.806,11.121,6.3,22.011,6.3s17.056-3.492,22.011-6.3c3.936-2.229,6.535-3.7,12.155-3.7s8.22,1.473,12.155,3.7c4.955,2.806,11.122,6.3,22.012,6.3s17.057-3.492,22.011-6.3c3.936-2.23,6.536-3.7,12.156-3.7s8.22,1.473,12.154,3.7c4.955,2.806,11.122,6.3,22.012,6.3s17.058-3.493,22.012-6.3c3.936-2.229,6.536-3.7,12.155-3.7s8.22,1.473,12.155,3.7c4.956,2.806,11.123,6.3,22.012,6.3a15,15,0,0,1,0,30H51a15,15,0,0,1,0-30c10.89,0,17.056-3.492,22.011-6.3ZM492,436a30.034,30.034,0,0,1-30,30H50a30.034,30.034,0,0,1-30-30V416a10.011,10.011,0,0,1,10-10H482a10.01,10.01,0,0,1,10,10v20Z" fill="#c39080"/>
    <path id="Trazado_2" data-name="Trazado 2" d="M158.957,97.785a10,10,0,0,0,0-20h-.007a10,10,0,1,0,.007,20Z" fill="#c39080"/>
    <path id="Trazado_3" data-name="Trazado 3" d="M230.957,155.385a10,10,0,0,0,0-20h-.007a10,10,0,1,0,.007,20Z" fill="#c39080"/>
    <path id="Trazado_4" data-name="Trazado 4" d="M304.157,104.985a10,10,0,0,0,0-20h-.008a10,10,0,0,0,.008,20Z" fill="#c39080"/>
    <path id="Trazado_5" data-name="Trazado 5" d="M398.964,120.585a10,10,0,0,0,0-20h-.008a10,10,0,0,0,.008,20Z" fill="#c39080"/>
    <path id="Trazado_6" data-name="Trazado 6" d="M113.357,150.585a10,10,0,0,0,0-20h-.008a10,10,0,0,0,.008,20Z" fill="#c39080"/>
    <path id="Trazado_7" data-name="Trazado 7" d="M355.165,163.784a10,10,0,0,0,0-20h-.008a10,10,0,0,0,.008,20Z" fill="#c39080"/>
  </g>
</svg>
