<svg xmlns="http://www.w3.org/2000/svg" width="362.007" height="512" viewBox="0 0 362.007 512">
  <g id="supplement-icon" transform="translate(-74.997)">
    <path id="Trazado_1" data-name="Trazado 1" d="M432.876,191.362a22.2,22.2,0,0,0-16.749-7.847H396.9l16.278-94.006a10.887,10.887,0,0,0-8.862-12.552L364.78,70.1V50.5a11.311,11.311,0,0,0-11.3-11.3H314.97V11.186A11.211,11.211,0,0,0,303.759,0H261.373a11.212,11.212,0,0,0-11.212,11.186v108.04H215.352V75.276a11.424,11.424,0,0,0-11.41-11.411H168.913l-2.175-29.117A12.072,12.072,0,0,0,153.8,23.633L113.31,26.662a12.056,12.056,0,0,0-11.2,12.946l10.732,143.908H95.852a22.173,22.173,0,0,0-16.759,7.866,17.018,17.018,0,0,0-3.775,14.287l56.351,287.052C133.946,504.433,142.007,512,152.206,512H359.773c10.171,0,18.241-7.557,20.563-19.266L403.909,372.6a7.5,7.5,0,0,0-14.72-2.889L365.619,489.83c-.237,1.2-1.635,7.169-5.846,7.169H152.206c-4.211,0-5.581-5.948-5.815-7.154L90.035,202.765a2.122,2.122,0,0,1,.651-1.865,7.115,7.115,0,0,1,5.167-2.385h62.695c1.521,25.505,13.146,49.988,32.819,69.06,18.913,18.334,42.467,28.85,64.624,28.85s45.717-10.515,64.634-28.849c19.681-19.075,31.3-43.562,32.809-69.061h62.694A7.138,7.138,0,0,1,421.3,200.9a2.159,2.159,0,0,1,.669,1.877L396.132,334.422a7.5,7.5,0,1,0,14.719,2.889l25.842-131.655a17.07,17.07,0,0,0-3.817-14.294ZM150.543,75.276V183.515H127.888L117.29,41.406,152,38.81l2.107,28.2A11.367,11.367,0,0,0,150.543,75.276Zm49.809,180.068c-14.976-15.1-25.789-35.651-26.884-58.7-.16-3.355-.358-7.532-3.752-10.507a9.7,9.7,0,0,0-4.172-2.156V78.865h34.809V255.344Zm49.809,25.767c-11.617-1.21-23.728-5.937-34.809-13.368V134.226h34.809Zm99.619-97.56c-2.693.112-5.235.583-7.516,2.583-3.393,2.975-3.592,7.15-3.752,10.512-1,21.306-10.312,40.475-23.541,55.176V168a7.5,7.5,0,0,0-15,0v97.411c-10.92,8.013-23.04,13.376-34.809,15.26V15h34.809V133.3a7.5,7.5,0,0,0,15,0V54.2h34.81V183.551Zm15-.035V85.323l32.914,5.71L381.68,183.515h-16.9Z" fill="#c39080"/>
    <path id="Trazado_2" data-name="Trazado 2" d="M254.177,323.888c-22.5,0-43.8,5.674-59.963,15.976-17.217,10.972-26.7,25.881-26.7,41.981s9.481,30.994,26.7,41.97c16.171,10.31,37.467,15.987,59.964,15.987s43.793-5.678,59.964-15.987c17.216-10.976,26.7-25.881,26.7-41.97s-9.482-31.01-26.7-41.981c-16.166-10.3-37.462-15.976-59.963-15.976Zm71.662,57.957c0,23.285-32.817,42.957-71.662,42.957s-71.662-19.672-71.662-42.957,32.817-42.957,71.662-42.957S325.839,358.56,325.839,381.845Z" fill="#c39080"/>
  </g>
</svg>
